<svg width="96" height="68" viewBox="0 0 96 68" fill="none" xmlns="http://www.w3.org/2000/svg">
    <path d="M0 20.0787H19.7445C27.6337 20.0787 34.0296 26.4439 34.0296 34.2951V46.1525H14.2851C6.39594 46.1541 0 39.789 0 31.9361V20.0787Z" fill="#32F295" />
    <path d="M95.9969 0H61.0472C47.0825 0 35.7608 11.2672 35.7608 25.1647V46.1539H70.7089C84.6736 46.1539 95.9953 34.8867 95.9953 20.9892V0H95.9969Z" fill="#3FA9F5" />
    <path d="M1 49.9344H2.67242V67.7596H1V49.9344Z" fill="white" class="letters" />
    <path d="M4.36731 61.819C4.36731 58.3727 6.92285 55.6395 10.5524 55.6395C13.6578 55.6395 16.1406 57.8496 16.1648 61.6532V62.1055H6.08664C6.1109 64.5537 7.9014 66.4547 10.5055 66.4547C12.4642 66.4547 13.6336 65.6226 14.4455 64.2205L15.8074 65.0994C14.7561 66.8813 12.9882 67.9984 10.5055 67.9984C6.75464 67.9984 4.36731 65.2411 4.36731 61.819ZM6.23059 60.631H14.4229C14.1366 58.4918 12.4884 57.1848 10.4828 57.1848C8.49823 57.1848 6.63656 58.4677 6.23059 60.631Z" fill="white" class="letters" />
    <path d="M17.7646 61.8189C17.7646 58.4194 20.3201 55.6395 23.7119 55.6395C25.5509 55.6395 27.2702 56.5908 28.1307 57.8737V55.8778H29.8031V67.7618H28.1307V65.7658C27.2702 67.0487 25.5509 68 23.7119 68C20.3201 67.9984 17.7646 65.2169 17.7646 61.8189ZM28.273 61.8189C28.273 59.2516 26.4825 57.1848 23.8785 57.1848C21.2744 57.1848 19.4839 59.2532 19.4839 61.8189C19.4839 64.3847 21.2744 66.4531 23.8785 66.4531C26.4825 66.4531 28.273 64.3863 28.273 61.8189Z" fill="white" class="letters" />
    <path d="M34.3386 57.4456H31.7831V55.8762H34.3386V53.2138C34.3386 50.8847 35.7717 49.7917 37.7061 49.7917C38.3741 49.7917 38.9952 49.9109 39.4966 50.1008V51.5978C39.1149 51.4545 38.4453 51.337 37.9681 51.337C36.7017 51.337 36.0094 51.836 36.0094 53.3571V55.8762H39.4966V57.4456H36.0094V67.7602H34.337V57.4456H34.3386Z" fill="white" class="letters" />
    <path d="M39.6161 61.819C39.6161 58.4194 42.2185 55.6395 45.8497 55.6395C48.3098 55.6395 50.2685 56.8999 51.3182 58.7526L49.8609 59.5848C49.1444 58.1586 47.7113 57.1848 45.848 57.1848C43.1259 57.1848 41.3338 59.2757 41.3338 61.819C41.3338 64.3622 43.1243 66.4531 45.848 66.4531C47.7113 66.4531 49.1444 65.4793 49.8609 64.0531L51.3182 64.8853C50.2669 66.7396 48.3098 67.9984 45.8497 67.9984C42.2202 67.9984 39.6161 65.2169 39.6161 61.819Z" fill="white" class="letters" />
    <path d="M53.2057 49.9344H54.8782V67.7596H53.2057V49.9344Z" fill="white" class="letters" />
    <path d="M57.0261 61.819C57.0261 58.4194 59.6286 55.6395 63.2597 55.6395C66.8908 55.6395 69.4933 58.421 69.4933 61.819C69.4933 65.2169 66.8892 67.9984 63.2597 67.9984C59.6302 67.9984 57.0261 65.2169 57.0261 61.819ZM67.7723 61.819C67.7723 59.2757 65.9818 57.1848 63.2581 57.1848C60.5343 57.1848 58.7438 59.2757 58.7438 61.819C58.7438 64.3622 60.5343 66.4531 63.2581 66.4531C65.9818 66.4531 67.7723 64.3622 67.7723 61.819Z" fill="white" class="letters" />
    <path d="M71.4506 63.3162V55.8765H73.123V63.078C73.123 65.1223 74.3167 66.4534 76.036 66.4534C78.0417 66.4534 79.6187 64.6716 79.6187 61.7951V55.8765H81.2911V67.7605H79.6187V65.7645C78.7824 67.2856 77.3267 67.9987 75.8209 67.9987C73.2896 67.9987 71.4506 66.1685 71.4506 63.3162Z" fill="white" class="letters" />
    <path d="M82.9614 61.8184C82.9614 58.4189 85.517 55.639 88.9087 55.639C90.7477 55.639 92.4671 56.5903 93.3275 57.8732V49.9344H95V67.7596H93.3275V65.7637C92.4655 67.0466 90.7461 67.9979 88.9071 67.9979C85.517 67.9979 82.9614 65.2164 82.9614 61.8184ZM93.4699 61.8184C93.4699 59.2511 91.6794 57.1843 89.0753 57.1843C86.4712 57.1843 84.6808 59.2527 84.6808 61.8184C84.6808 64.3842 86.4712 66.4526 89.0753 66.4526C91.6794 66.4526 93.4699 64.3858 93.4699 61.8184Z" fill="white" class="letters" />
</svg>